<svg xmlns="http://www.w3.org/2000/svg" xmlns:xlink="http://www.w3.org/1999/xlink" width="500" zoomAndPan="magnify" viewBox="0 0 375 374.999991" height="500" preserveAspectRatio="xMidYMid meet" version="1.0"><defs><g/></defs><g fill="#00bf63" fill-opacity="1"><g transform="translate(31.415106, 204.469062)"><g><path d="M -22.859375 -13.09375 C -22.867188 -13.28125 -22.8125 -13.46875 -22.6875 -13.65625 C -22.570312 -13.84375 -22.425781 -13.976562 -22.25 -14.0625 L -10.96875 -19.296875 C -10.800781 -19.359375 -10.582031 -19.421875 -10.3125 -19.484375 C -10.039062 -19.554688 -9.804688 -19.597656 -9.609375 -19.609375 L -1.75 -20.03125 C -1.5625 -20.039062 -1.394531 -19.976562 -1.25 -19.84375 C -1.101562 -19.71875 -1.023438 -19.554688 -1.015625 -19.359375 L -0.859375 -16.34375 C -0.847656 -16.144531 -0.910156 -15.972656 -1.046875 -15.828125 C -1.179688 -15.691406 -1.34375 -15.617188 -1.53125 -15.609375 L -5.25 -15.40625 L -4.78125 -6.5625 L -1.0625 -6.765625 C -0.875 -6.773438 -0.703125 -6.710938 -0.546875 -6.578125 C -0.398438 -6.441406 -0.320312 -6.273438 -0.3125 -6.078125 L -0.15625 -3.09375 C -0.144531 -2.90625 -0.207031 -2.738281 -0.34375 -2.59375 C -0.476562 -2.445312 -0.640625 -2.367188 -0.828125 -2.359375 L -8.6875 -1.9375 C -8.882812 -1.925781 -9.117188 -1.9375 -9.390625 -1.96875 C -9.671875 -2.007812 -9.894531 -2.0625 -10.0625 -2.125 L -21.828125 -6.125 C -22.015625 -6.195312 -22.175781 -6.320312 -22.3125 -6.5 C -22.457031 -6.675781 -22.535156 -6.863281 -22.546875 -7.0625 Z M -9.1875 -6.484375 L -9.640625 -15 L -18.3125 -11 L -18.234375 -9.578125 Z M -9.1875 -6.484375 "/></g></g></g><g fill="#00bf63" fill-opacity="1"><g transform="translate(30.596037, 174.015005)"><g><path d="M -18.96875 -18.546875 C -19.164062 -18.578125 -19.328125 -18.671875 -19.453125 -18.828125 C -19.578125 -18.984375 -19.625 -19.15625 -19.59375 -19.34375 L -19.15625 -22.34375 C -19.132812 -22.539062 -19.039062 -22.695312 -18.875 -22.8125 C -18.71875 -22.925781 -18.539062 -22.96875 -18.34375 -22.9375 L 2.15625 -19.984375 C 2.34375 -19.960938 2.492188 -19.875 2.609375 -19.71875 C 2.734375 -19.5625 2.785156 -19.382812 2.765625 -19.1875 L 2.328125 -16.1875 C 2.296875 -16 2.203125 -15.847656 2.046875 -15.734375 C 1.890625 -15.617188 1.71875 -15.570312 1.53125 -15.59375 L -5.953125 -16.671875 L -15.0625 -9.0625 L 0.265625 -6.84375 C 0.453125 -6.820312 0.601562 -6.726562 0.71875 -6.5625 C 0.84375 -6.40625 0.894531 -6.226562 0.875 -6.03125 L 0.4375 -3.0625 C 0.414062 -2.875 0.320312 -2.71875 0.15625 -2.59375 C 0 -2.476562 -0.171875 -2.429688 -0.359375 -2.453125 L -20.859375 -5.40625 C -21.054688 -5.4375 -21.210938 -5.53125 -21.328125 -5.6875 C -21.453125 -5.851562 -21.503906 -6.03125 -21.484375 -6.21875 L -21.046875 -9.1875 C -21.023438 -9.382812 -20.945312 -9.585938 -20.8125 -9.796875 C -20.675781 -10.015625 -20.535156 -10.191406 -20.390625 -10.328125 L -11.828125 -17.515625 Z M -18.96875 -18.546875 "/></g></g></g><g fill="#00bf63" fill-opacity="1"><g transform="translate(35.703149, 143.981073)"><g><path d="M -16.15625 -20.796875 C -16.09375 -20.972656 -15.96875 -21.125 -15.78125 -21.25 C -15.601562 -21.382812 -15.414062 -21.457031 -15.21875 -21.46875 L -2.796875 -22.015625 C -2.617188 -22.023438 -2.390625 -22.003906 -2.109375 -21.953125 C -1.835938 -21.910156 -1.609375 -21.859375 -1.421875 -21.796875 L 6.015625 -19.1875 C 6.191406 -19.125 6.320312 -19.003906 6.40625 -18.828125 C 6.488281 -18.660156 6.5 -18.484375 6.4375 -18.296875 L 5.421875 -15.4375 C 5.359375 -15.25 5.238281 -15.113281 5.0625 -15.03125 C 4.882812 -14.945312 4.707031 -14.9375 4.53125 -15 L 1.015625 -16.234375 L -1.90625 -7.890625 L 1.609375 -6.65625 C 1.785156 -6.59375 1.914062 -6.472656 2 -6.296875 C 2.082031 -6.117188 2.085938 -5.9375 2.015625 -5.75 L 1.03125 -2.921875 C 0.96875 -2.742188 0.847656 -2.609375 0.671875 -2.515625 C 0.492188 -2.429688 0.316406 -2.421875 0.140625 -2.484375 L -7.296875 -5.09375 C -7.484375 -5.15625 -7.695312 -5.257812 -7.9375 -5.40625 C -8.175781 -5.550781 -8.363281 -5.675781 -8.5 -5.78125 L -17.859375 -13.984375 C -17.992188 -14.117188 -18.09375 -14.289062 -18.15625 -14.5 C -18.21875 -14.71875 -18.21875 -14.921875 -18.15625 -15.109375 Z M -6.03125 -9.515625 L -3.203125 -17.546875 L -12.765625 -17.140625 L -13.234375 -15.796875 Z M -6.03125 -9.515625 "/></g></g></g><g fill="#00bf63" fill-opacity="1"><g transform="translate(46.546036, 115.512138)"><g><path d="M 7.234375 -12.25 L 4.1875 -7.09375 C 4.082031 -6.914062 3.921875 -6.78125 3.703125 -6.6875 C 3.492188 -6.59375 3.304688 -6.554688 3.140625 -6.578125 L -9.171875 -8.484375 C -9.347656 -8.492188 -9.5625 -8.550781 -9.8125 -8.65625 C -10.070312 -8.757812 -10.285156 -8.859375 -10.453125 -8.953125 L -17.234375 -12.953125 C -17.398438 -13.054688 -17.507812 -13.195312 -17.5625 -13.375 C -17.613281 -13.550781 -17.59375 -13.722656 -17.5 -13.890625 L -15.96875 -16.5 C -15.863281 -16.664062 -15.710938 -16.773438 -15.515625 -16.828125 C -15.328125 -16.878906 -15.148438 -16.851562 -14.984375 -16.75 L -8.921875 -13.171875 C -8.753906 -13.078125 -8.550781 -12.984375 -8.3125 -12.890625 C -8.070312 -12.796875 -7.851562 -12.738281 -7.65625 -12.71875 L 1.53125 -11.3125 L 2.25 -12.53125 L -3.421875 -19.890625 C -3.535156 -20.054688 -3.691406 -20.222656 -3.890625 -20.390625 C -4.085938 -20.566406 -4.269531 -20.703125 -4.4375 -20.796875 L -10.5 -24.375 C -10.664062 -24.476562 -10.769531 -24.617188 -10.8125 -24.796875 C -10.863281 -24.984375 -10.84375 -25.164062 -10.75 -25.34375 L -9.203125 -27.953125 C -9.097656 -28.117188 -8.953125 -28.222656 -8.765625 -28.265625 C -8.585938 -28.304688 -8.414062 -28.273438 -8.25 -28.171875 L -1.46875 -24.171875 C -1.300781 -24.078125 -1.109375 -23.941406 -0.890625 -23.765625 C -0.679688 -23.585938 -0.53125 -23.421875 -0.4375 -23.265625 L 7.1875 -13.421875 C 7.28125 -13.273438 7.332031 -13.082031 7.34375 -12.84375 C 7.363281 -12.613281 7.328125 -12.414062 7.234375 -12.25 Z M 7.234375 -12.25 "/></g></g></g><g fill="#00bf63" fill-opacity="1"><g transform="translate(62.682376, 89.707103)"><g><path d="M -7.015625 -25.375 C -6.890625 -25.519531 -6.71875 -25.617188 -6.5 -25.671875 C -6.289062 -25.722656 -6.09375 -25.71875 -5.90625 -25.65625 L 5.796875 -21.421875 C 5.960938 -21.359375 6.160156 -21.253906 6.390625 -21.109375 C 6.628906 -20.960938 6.820312 -20.828125 6.96875 -20.703125 L 12.84375 -15.453125 C 12.988281 -15.328125 13.066406 -15.164062 13.078125 -14.96875 C 13.097656 -14.78125 13.039062 -14.613281 12.90625 -14.46875 L 10.890625 -12.203125 C 10.753906 -12.054688 10.585938 -11.976562 10.390625 -11.96875 C 10.203125 -11.96875 10.035156 -12.03125 9.890625 -12.15625 L 7.125 -14.625 L 1.234375 -8.015625 L 4 -5.546875 C 4.144531 -5.421875 4.222656 -5.257812 4.234375 -5.0625 C 4.242188 -4.863281 4.1875 -4.691406 4.0625 -4.546875 L 2.0625 -2.3125 C 1.9375 -2.164062 1.773438 -2.085938 1.578125 -2.078125 C 1.378906 -2.066406 1.207031 -2.125 1.0625 -2.25 L -4.8125 -7.5 C -4.957031 -7.625 -5.113281 -7.796875 -5.28125 -8.015625 C -5.445312 -8.242188 -5.570312 -8.429688 -5.65625 -8.578125 L -11.1875 -19.734375 C -11.269531 -19.910156 -11.296875 -20.109375 -11.265625 -20.328125 C -11.242188 -20.546875 -11.164062 -20.726562 -11.03125 -20.875 Z M -1.953125 -11.09375 L 3.71875 -17.4375 L -5.265625 -20.703125 L -6.21875 -19.640625 Z M -1.953125 -11.09375 "/></g></g></g><g fill="#00bf63" fill-opacity="1"><g transform="translate(83.544253, 67.50549)"><g><path d="M -0.40625 -26.53125 C -0.53125 -26.6875 -0.582031 -26.863281 -0.5625 -27.0625 C -0.539062 -27.257812 -0.453125 -27.414062 -0.296875 -27.53125 L 2.125 -29.359375 C 2.28125 -29.472656 2.453125 -29.507812 2.640625 -29.46875 C 2.828125 -29.4375 2.984375 -29.34375 3.109375 -29.1875 L 15.59375 -12.65625 C 15.707031 -12.507812 15.753906 -12.335938 15.734375 -12.140625 C 15.710938 -11.953125 15.625 -11.800781 15.46875 -11.6875 L 13.046875 -9.859375 C 12.890625 -9.742188 12.71875 -9.703125 12.53125 -9.734375 C 12.34375 -9.765625 12.191406 -9.851562 12.078125 -10 L 7.171875 -16.5 L 0.109375 -11.171875 L 5.015625 -4.671875 C 5.128906 -4.523438 5.171875 -4.351562 5.140625 -4.15625 C 5.109375 -3.957031 5.015625 -3.796875 4.859375 -3.671875 L 2.4375 -1.84375 C 2.289062 -1.726562 2.125 -1.6875 1.9375 -1.71875 C 1.75 -1.757812 1.597656 -1.851562 1.484375 -2 L -11 -18.53125 C -11.125 -18.6875 -11.175781 -18.859375 -11.15625 -19.046875 C -11.132812 -19.242188 -11.050781 -19.398438 -10.90625 -19.515625 L -8.484375 -21.34375 C -8.328125 -21.46875 -8.148438 -21.515625 -7.953125 -21.484375 C -7.753906 -21.453125 -7.59375 -21.359375 -7.46875 -21.203125 L -2.5625 -14.6875 L 4.5 -20.015625 Z M -0.40625 -26.53125 "/></g></g></g><g fill="#00bf63" fill-opacity="1"><g transform="translate(108.28946, 49.787412)"><g/></g></g><g fill="#00bf63" fill-opacity="1"><g transform="translate(135.999497, 37.203122)"><g><path d="M 3 -0.78125 C 2.8125 -0.738281 2.628906 -0.765625 2.453125 -0.859375 C 2.285156 -0.960938 2.179688 -1.109375 2.140625 -1.296875 L -3.125 -21.328125 C -3.175781 -21.515625 -3.148438 -21.695312 -3.046875 -21.875 C -2.953125 -22.050781 -2.8125 -22.160156 -2.625 -22.203125 L 8.296875 -25.078125 C 9.035156 -25.273438 9.785156 -25.3125 10.546875 -25.1875 C 11.304688 -25.070312 12 -24.832031 12.625 -24.46875 C 13.257812 -24.101562 13.804688 -23.617188 14.265625 -23.015625 C 14.734375 -22.421875 15.066406 -21.742188 15.265625 -20.984375 L 17.984375 -10.625 C 18.191406 -9.851562 18.238281 -9.097656 18.125 -8.359375 C 18.007812 -7.617188 17.765625 -6.929688 17.390625 -6.296875 C 17.023438 -5.671875 16.539062 -5.125 15.9375 -4.65625 C 15.332031 -4.1875 14.660156 -3.851562 13.921875 -3.65625 Z M 5.46875 -6.015625 L 12.796875 -7.9375 C 13.148438 -8.03125 13.410156 -8.222656 13.578125 -8.515625 C 13.742188 -8.804688 13.78125 -9.132812 13.6875 -9.5 L 10.96875 -19.859375 C 10.875 -20.203125 10.679688 -20.46875 10.390625 -20.65625 C 10.097656 -20.84375 9.773438 -20.890625 9.421875 -20.796875 L 2.09375 -18.875 Z M 5.46875 -6.015625 "/></g></g></g><g fill="#00bf63" fill-opacity="1"><g transform="translate(165.65584, 30.227109)"><g><path d="M 18.59375 -19.578125 C 18.601562 -19.378906 18.546875 -19.210938 18.421875 -19.078125 C 18.296875 -18.941406 18.132812 -18.867188 17.9375 -18.859375 L 6.015625 -18.125 L 6.296875 -13.671875 L 17.09375 -14.328125 C 17.289062 -14.347656 17.460938 -14.296875 17.609375 -14.171875 C 17.753906 -14.046875 17.835938 -13.882812 17.859375 -13.6875 L 18.046875 -10.671875 C 18.054688 -10.484375 17.992188 -10.316406 17.859375 -10.171875 C 17.722656 -10.023438 17.554688 -9.941406 17.359375 -9.921875 L 6.5625 -9.265625 L 6.84375 -4.84375 L 18.765625 -5.578125 C 18.960938 -5.585938 19.128906 -5.53125 19.265625 -5.40625 C 19.398438 -5.28125 19.472656 -5.117188 19.484375 -4.921875 L 19.671875 -1.921875 C 19.679688 -1.734375 19.625 -1.5625 19.5 -1.40625 C 19.382812 -1.257812 19.226562 -1.179688 19.03125 -1.171875 L 3.390625 -0.203125 C 3.191406 -0.191406 3.019531 -0.253906 2.875 -0.390625 C 2.738281 -0.523438 2.664062 -0.6875 2.65625 -0.875 L 1.390625 -21.546875 C 1.378906 -21.742188 1.429688 -21.914062 1.546875 -22.0625 C 1.671875 -22.207031 1.832031 -22.285156 2.03125 -22.296875 L 17.671875 -23.265625 C 17.867188 -23.273438 18.035156 -23.210938 18.171875 -23.078125 C 18.316406 -22.953125 18.394531 -22.789062 18.40625 -22.59375 Z M 18.59375 -19.578125 "/></g></g></g><g fill="#00bf63" fill-opacity="1"><g transform="translate(196.070344, 29.138643)"><g><path d="M 18.28125 -13.15625 C 18.082031 -13.1875 17.925781 -13.28125 17.8125 -13.4375 C 17.695312 -13.59375 17.648438 -13.769531 17.671875 -13.96875 L 17.703125 -14.1875 C 17.753906 -14.539062 17.675781 -14.859375 17.46875 -15.140625 C 17.257812 -15.421875 16.976562 -15.585938 16.625 -15.640625 L 10.34375 -16.484375 C 10.007812 -16.535156 9.703125 -16.453125 9.421875 -16.234375 C 9.148438 -16.015625 8.988281 -15.726562 8.9375 -15.375 L 8.6875 -13.515625 C 8.644531 -13.148438 8.726562 -12.828125 8.9375 -12.546875 C 9.144531 -12.273438 9.414062 -12.113281 9.75 -12.0625 L 16.03125 -11.21875 C 16.789062 -11.113281 17.492188 -10.867188 18.140625 -10.484375 C 18.785156 -10.097656 19.328125 -9.613281 19.765625 -9.03125 C 20.210938 -8.445312 20.535156 -7.796875 20.734375 -7.078125 C 20.941406 -6.359375 20.992188 -5.613281 20.890625 -4.84375 L 20.640625 -3 C 20.535156 -2.195312 20.289062 -1.472656 19.90625 -0.828125 C 19.519531 -0.191406 19.035156 0.34375 18.453125 0.78125 C 17.867188 1.226562 17.210938 1.554688 16.484375 1.765625 C 15.765625 1.972656 15.023438 2.023438 14.265625 1.921875 L 7.984375 1.078125 C 7.222656 0.972656 6.519531 0.722656 5.875 0.328125 C 5.238281 -0.0546875 4.695312 -0.539062 4.25 -1.125 C 3.8125 -1.707031 3.488281 -2.359375 3.28125 -3.078125 C 3.082031 -3.796875 3.035156 -4.554688 3.140625 -5.359375 L 3.171875 -5.578125 C 3.191406 -5.765625 3.28125 -5.914062 3.4375 -6.03125 C 3.59375 -6.144531 3.765625 -6.191406 3.953125 -6.171875 L 6.9375 -5.765625 C 7.125 -5.734375 7.273438 -5.640625 7.390625 -5.484375 C 7.515625 -5.335938 7.566406 -5.171875 7.546875 -4.984375 L 7.515625 -4.765625 C 7.460938 -4.390625 7.539062 -4.0625 7.75 -3.78125 C 7.96875 -3.507812 8.242188 -3.347656 8.578125 -3.296875 L 14.859375 -2.453125 C 15.210938 -2.398438 15.523438 -2.476562 15.796875 -2.6875 C 16.066406 -2.90625 16.226562 -3.203125 16.28125 -3.578125 L 16.53125 -5.421875 C 16.570312 -5.773438 16.488281 -6.085938 16.28125 -6.359375 C 16.082031 -6.628906 15.804688 -6.789062 15.453125 -6.84375 L 9.171875 -7.6875 C 8.410156 -7.789062 7.707031 -8.035156 7.0625 -8.421875 C 6.414062 -8.816406 5.867188 -9.304688 5.421875 -9.890625 C 4.984375 -10.472656 4.660156 -11.128906 4.453125 -11.859375 C 4.253906 -12.585938 4.207031 -13.335938 4.3125 -14.109375 L 4.5625 -15.96875 C 4.664062 -16.75 4.910156 -17.460938 5.296875 -18.109375 C 5.691406 -18.753906 6.175781 -19.296875 6.75 -19.734375 C 7.332031 -20.179688 7.984375 -20.503906 8.703125 -20.703125 C 9.429688 -20.910156 10.175781 -20.960938 10.9375 -20.859375 L 17.21875 -20.015625 C 17.976562 -19.910156 18.675781 -19.664062 19.3125 -19.28125 C 19.957031 -18.894531 20.503906 -18.410156 20.953125 -17.828125 C 21.398438 -17.242188 21.722656 -16.585938 21.921875 -15.859375 C 22.117188 -15.140625 22.164062 -14.390625 22.0625 -13.609375 L 22.03125 -13.390625 C 22.007812 -13.191406 21.925781 -13.03125 21.78125 -12.90625 C 21.644531 -12.78125 21.476562 -12.726562 21.28125 -12.75 Z M 18.28125 -13.15625 "/></g></g></g><g fill="#00bf63" fill-opacity="1"><g transform="translate(226.14903, 33.975267)"><g><path d="M 24.5625 -11.046875 C 24.5 -10.859375 24.382812 -10.722656 24.21875 -10.640625 C 24.050781 -10.566406 23.875 -10.566406 23.6875 -10.640625 L 18.46875 -12.421875 L 14.15625 0.15625 L 19.375 1.9375 C 19.5625 2.007812 19.695312 2.132812 19.78125 2.3125 C 19.875 2.488281 19.890625 2.671875 19.828125 2.859375 L 18.859375 5.6875 C 18.796875 5.863281 18.675781 6 18.5 6.09375 C 18.320312 6.1875 18.140625 6.195312 17.953125 6.125 L 3.359375 1.140625 C 3.179688 1.085938 3.046875 0.96875 2.953125 0.78125 C 2.867188 0.601562 2.859375 0.425781 2.921875 0.25 L 3.890625 -2.578125 C 3.953125 -2.765625 4.070312 -2.898438 4.25 -2.984375 C 4.425781 -3.078125 4.601562 -3.097656 4.78125 -3.046875 L 9.96875 -1.265625 L 14.28125 -13.84375 L 9.09375 -15.625 C 8.914062 -15.675781 8.773438 -15.785156 8.671875 -15.953125 C 8.578125 -16.117188 8.5625 -16.296875 8.625 -16.484375 L 9.609375 -19.34375 C 9.671875 -19.53125 9.789062 -19.664062 9.96875 -19.75 C 10.15625 -19.84375 10.335938 -19.863281 10.515625 -19.8125 L 25.109375 -14.828125 C 25.296875 -14.753906 25.429688 -14.628906 25.515625 -14.453125 C 25.597656 -14.273438 25.609375 -14.09375 25.546875 -13.90625 Z M 24.5625 -11.046875 "/></g></g></g><g fill="#00bf63" fill-opacity="1"><g transform="translate(254.71768, 44.554305)"><g><path d="M 21.765625 -6.375 C 21.953125 -6.6875 22 -7.015625 21.90625 -7.359375 C 21.820312 -7.703125 21.628906 -7.960938 21.328125 -8.140625 L 15.859375 -11.3125 C 15.554688 -11.476562 15.234375 -11.515625 14.890625 -11.421875 C 14.554688 -11.328125 14.296875 -11.125 14.109375 -10.8125 L 8.75 -1.546875 C 8.5625 -1.222656 8.515625 -0.890625 8.609375 -0.546875 C 8.703125 -0.210938 8.898438 0.0351562 9.203125 0.203125 L 14.671875 3.375 C 14.972656 3.550781 15.289062 3.59375 15.625 3.5 C 15.957031 3.414062 16.21875 3.210938 16.40625 2.890625 L 17.96875 0.1875 L 14.75 -1.671875 C 14.582031 -1.773438 14.472656 -1.921875 14.421875 -2.109375 C 14.378906 -2.296875 14.40625 -2.472656 14.5 -2.640625 L 16.015625 -5.265625 C 16.117188 -5.429688 16.257812 -5.535156 16.4375 -5.578125 C 16.625 -5.628906 16.800781 -5.601562 16.96875 -5.5 L 23.421875 -1.78125 C 23.597656 -1.675781 23.707031 -1.535156 23.75 -1.359375 C 23.789062 -1.179688 23.757812 -1.007812 23.65625 -0.84375 L 20.21875 5.09375 C 19.820312 5.789062 19.320312 6.359375 18.71875 6.796875 C 18.125 7.242188 17.472656 7.5625 16.765625 7.75 C 16.054688 7.9375 15.328125 7.988281 14.578125 7.90625 C 13.828125 7.820312 13.117188 7.585938 12.453125 7.203125 L 6.984375 4.03125 C 6.316406 3.644531 5.757812 3.148438 5.3125 2.546875 C 4.863281 1.941406 4.546875 1.285156 4.359375 0.578125 C 4.179688 -0.117188 4.128906 -0.835938 4.203125 -1.578125 C 4.285156 -2.328125 4.523438 -3.050781 4.921875 -3.75 L 10.28125 -13.015625 C 10.675781 -13.703125 11.179688 -14.269531 11.796875 -14.71875 C 12.410156 -15.164062 13.066406 -15.484375 13.765625 -15.671875 C 14.460938 -15.859375 15.1875 -15.910156 15.9375 -15.828125 C 16.6875 -15.753906 17.394531 -15.523438 18.0625 -15.140625 L 23.53125 -11.96875 C 24.195312 -11.582031 24.753906 -11.082031 25.203125 -10.46875 C 25.648438 -9.863281 25.96875 -9.207031 26.15625 -8.5 C 26.351562 -7.800781 26.40625 -7.078125 26.3125 -6.328125 C 26.21875 -5.578125 25.972656 -4.859375 25.578125 -4.171875 L 25.46875 -3.984375 C 25.375 -3.804688 25.238281 -3.6875 25.0625 -3.625 C 24.882812 -3.570312 24.707031 -3.597656 24.53125 -3.703125 L 21.90625 -5.21875 C 21.738281 -5.3125 21.628906 -5.453125 21.578125 -5.640625 C 21.535156 -5.828125 21.5625 -6.007812 21.65625 -6.1875 Z M 21.765625 -6.375 "/></g></g></g><g fill="#00bf63" fill-opacity="1"><g transform="translate(280.6636, 60.464986)"><g><path d="M 25.90625 -5.796875 C 26.03125 -5.941406 26.1875 -6.019531 26.375 -6.03125 C 26.570312 -6.050781 26.742188 -6 26.890625 -5.875 L 29.171875 -3.875 C 29.328125 -3.75 29.40625 -3.582031 29.40625 -3.375 C 29.414062 -3.175781 29.359375 -3.003906 29.234375 -2.859375 L 15.578125 12.71875 C 15.453125 12.863281 15.289062 12.941406 15.09375 12.953125 C 14.90625 12.960938 14.734375 12.90625 14.578125 12.78125 L 12.296875 10.78125 C 12.148438 10.65625 12.070312 10.492188 12.0625 10.296875 C 12.0625 10.097656 12.125 9.925781 12.25 9.78125 L 17.234375 4.09375 L 15.796875 -7.703125 L 5.59375 3.953125 C 5.46875 4.097656 5.304688 4.175781 5.109375 4.1875 C 4.910156 4.207031 4.734375 4.148438 4.578125 4.015625 L 2.328125 2.03125 C 2.179688 1.914062 2.101562 1.757812 2.09375 1.5625 C 2.082031 1.363281 2.140625 1.191406 2.265625 1.046875 L 15.921875 -14.53125 C 16.046875 -14.675781 16.207031 -14.753906 16.40625 -14.765625 C 16.601562 -14.785156 16.773438 -14.738281 16.921875 -14.625 L 19.171875 -12.640625 C 19.328125 -12.503906 19.457031 -12.320312 19.5625 -12.09375 C 19.664062 -11.863281 19.738281 -11.648438 19.78125 -11.453125 L 21.140625 -0.375 Z M 25.90625 -5.796875 "/></g></g></g><g fill="#00bf63" fill-opacity="1"><g transform="translate(303.053821, 81.124048)"><g><path d="M 22.234375 3.53125 C 22.117188 3.375 22.078125 3.195312 22.109375 3 C 22.140625 2.800781 22.234375 2.644531 22.390625 2.53125 L 22.5625 2.390625 C 22.851562 2.171875 23.023438 1.890625 23.078125 1.546875 C 23.128906 1.203125 23.046875 0.882812 22.828125 0.59375 L 18.96875 -4.421875 C 18.757812 -4.691406 18.476562 -4.84375 18.125 -4.875 C 17.78125 -4.914062 17.460938 -4.828125 17.171875 -4.609375 L 15.6875 -3.46875 C 15.394531 -3.238281 15.226562 -2.953125 15.1875 -2.609375 C 15.144531 -2.273438 15.226562 -1.972656 15.4375 -1.703125 L 19.296875 3.3125 C 19.765625 3.925781 20.085938 4.597656 20.265625 5.328125 C 20.441406 6.054688 20.484375 6.78125 20.390625 7.5 C 20.296875 8.226562 20.066406 8.921875 19.703125 9.578125 C 19.347656 10.234375 18.859375 10.800781 18.234375 11.28125 L 16.765625 12.421875 C 16.128906 12.910156 15.445312 13.242188 14.71875 13.421875 C 13.988281 13.597656 13.257812 13.640625 12.53125 13.546875 C 11.8125 13.453125 11.125 13.222656 10.46875 12.859375 C 9.8125 12.503906 9.25 12.019531 8.78125 11.40625 L 4.921875 6.390625 C 4.453125 5.773438 4.125 5.101562 3.9375 4.375 C 3.757812 3.65625 3.71875 2.929688 3.8125 2.203125 C 3.90625 1.472656 4.128906 0.78125 4.484375 0.125 C 4.847656 -0.53125 5.347656 -1.101562 5.984375 -1.59375 L 6.15625 -1.734375 C 6.3125 -1.847656 6.488281 -1.890625 6.6875 -1.859375 C 6.882812 -1.828125 7.039062 -1.738281 7.15625 -1.59375 L 8.984375 0.78125 C 9.097656 0.9375 9.144531 1.113281 9.125 1.3125 C 9.101562 1.507812 9.015625 1.664062 8.859375 1.78125 L 8.6875 1.921875 C 8.394531 2.148438 8.222656 2.429688 8.171875 2.765625 C 8.128906 3.109375 8.210938 3.414062 8.421875 3.6875 L 12.28125 8.703125 C 12.5 8.992188 12.78125 9.160156 13.125 9.203125 C 13.46875 9.242188 13.785156 9.148438 14.078125 8.921875 L 15.546875 7.78125 C 15.835938 7.5625 16.003906 7.285156 16.046875 6.953125 C 16.097656 6.617188 16.015625 6.304688 15.796875 6.015625 L 11.9375 1 C 11.46875 0.382812 11.140625 -0.285156 10.953125 -1.015625 C 10.773438 -1.742188 10.734375 -2.46875 10.828125 -3.1875 C 10.921875 -3.914062 11.148438 -4.613281 11.515625 -5.28125 C 11.878906 -5.945312 12.367188 -6.515625 12.984375 -6.984375 L 14.46875 -8.125 C 15.09375 -8.601562 15.773438 -8.929688 16.515625 -9.109375 C 17.253906 -9.296875 17.984375 -9.34375 18.703125 -9.25 C 19.421875 -9.15625 20.109375 -8.925781 20.765625 -8.5625 C 21.429688 -8.207031 22 -7.722656 22.46875 -7.109375 L 26.328125 -2.09375 C 26.796875 -1.476562 27.117188 -0.804688 27.296875 -0.078125 C 27.472656 0.640625 27.515625 1.363281 27.421875 2.09375 C 27.335938 2.820312 27.109375 3.515625 26.734375 4.171875 C 26.367188 4.835938 25.875 5.410156 25.25 5.890625 L 25.078125 6.03125 C 24.921875 6.144531 24.742188 6.195312 24.546875 6.1875 C 24.359375 6.175781 24.207031 6.09375 24.09375 5.9375 Z M 22.234375 3.53125 "/></g></g></g><g fill="#d9d9d9" fill-opacity="1"><g transform="translate(12.878665, 223.967506)"><g><path d="M 21.828125 -2.375 C 22.117188 -2.445312 22.304688 -2.335938 22.390625 -2.046875 L 26.328125 12.453125 C 26.410156 12.742188 26.304688 12.925781 26.015625 13 L 24.53125 13.40625 C 24.238281 13.488281 24.050781 13.382812 23.96875 13.09375 L 20.546875 0.5 L 13.40625 2.4375 L 16.546875 13.984375 C 16.578125 14.085938 16.554688 14.195312 16.484375 14.3125 C 16.421875 14.4375 16.335938 14.515625 16.234375 14.546875 L 14.75 14.953125 C 14.613281 14.984375 14.492188 14.960938 14.390625 14.890625 C 14.285156 14.828125 14.21875 14.742188 14.1875 14.640625 L 11.046875 3.09375 L 1.984375 5.546875 C 1.691406 5.628906 1.503906 5.523438 1.421875 5.234375 L 1.03125 3.765625 C 0.945312 3.472656 1.050781 3.285156 1.34375 3.203125 Z M 21.828125 -2.375 "/></g></g></g><g fill="#d9d9d9" fill-opacity="1"><g transform="translate(22.874103, 256.418911)"><g><path d="M 7.703125 14.578125 L 14.28125 6.640625 L 11.203125 0.453125 L 2.796875 4.625 C 2.523438 4.757812 2.328125 4.691406 2.203125 4.421875 L 1.515625 3.0625 C 1.390625 2.789062 1.460938 2.585938 1.734375 2.453125 L 20.75 -6.984375 C 21.019531 -7.117188 21.21875 -7.050781 21.34375 -6.78125 L 26.4375 3.453125 C 26.71875 4.023438 26.875 4.617188 26.90625 5.234375 C 26.9375 5.859375 26.851562 6.457031 26.65625 7.03125 C 26.46875 7.613281 26.171875 8.140625 25.765625 8.609375 C 25.359375 9.078125 24.867188 9.457031 24.296875 9.75 L 21.71875 11.03125 C 20.769531 11.5 19.785156 11.632812 18.765625 11.4375 C 17.753906 11.25 16.890625 10.765625 16.171875 9.984375 L 15.390625 9.140625 L 8.90625 16.984375 C 8.832031 17.078125 8.742188 17.117188 8.640625 17.109375 C 8.546875 17.097656 8.46875 17.039062 8.40625 16.9375 L 7.625 15.34375 C 7.5625 15.226562 7.539062 15.085938 7.5625 14.921875 C 7.582031 14.765625 7.628906 14.648438 7.703125 14.578125 Z M 13.40625 -0.640625 L 17.625 7.828125 C 17.894531 8.390625 18.320312 8.769531 18.90625 8.96875 C 19.5 9.164062 20.078125 9.125 20.640625 8.84375 L 23.21875 7.5625 C 23.769531 7.28125 24.144531 6.847656 24.34375 6.265625 C 24.539062 5.679688 24.503906 5.109375 24.234375 4.546875 L 20.015625 -3.921875 Z M 13.40625 -0.640625 "/></g></g></g><g fill="#d9d9d9" fill-opacity="1"><g transform="translate(38.976275, 286.314102)"><g><path d="M 4.65625 6.046875 C 4.269531 5.535156 4 4.976562 3.84375 4.375 C 3.6875 3.78125 3.644531 3.1875 3.71875 2.59375 C 3.800781 2.007812 4 1.441406 4.3125 0.890625 C 4.625 0.347656 5.03125 -0.117188 5.53125 -0.515625 L 15.609375 -8.265625 C 16.117188 -8.660156 16.675781 -8.9375 17.28125 -9.09375 C 17.882812 -9.25 18.484375 -9.289062 19.078125 -9.21875 C 19.679688 -9.144531 20.253906 -8.960938 20.796875 -8.671875 C 21.347656 -8.378906 21.816406 -7.976562 22.203125 -7.46875 L 26.609375 -1.75 C 26.992188 -1.238281 27.257812 -0.679688 27.40625 -0.078125 C 27.5625 0.523438 27.597656 1.128906 27.515625 1.734375 C 27.441406 2.335938 27.25 2.910156 26.9375 3.453125 C 26.632812 3.992188 26.226562 4.460938 25.71875 4.859375 L 15.640625 12.609375 C 15.140625 13.003906 14.582031 13.28125 13.96875 13.4375 C 13.363281 13.601562 12.757812 13.640625 12.15625 13.546875 C 11.5625 13.460938 10.992188 13.269531 10.453125 12.96875 C 9.910156 12.675781 9.445312 12.273438 9.0625 11.765625 Z M 20.25 -5.96875 C 19.875 -6.445312 19.378906 -6.726562 18.765625 -6.8125 C 18.148438 -6.894531 17.59375 -6.742188 17.09375 -6.359375 L 7.015625 1.390625 C 6.535156 1.765625 6.25 2.265625 6.15625 2.890625 C 6.070312 3.515625 6.21875 4.066406 6.59375 4.546875 L 11 10.265625 C 11.375 10.753906 11.875 11.035156 12.5 11.109375 C 13.125 11.191406 13.675781 11.046875 14.15625 10.671875 L 24.234375 2.921875 C 24.734375 2.535156 25.019531 2.03125 25.09375 1.40625 C 25.175781 0.789062 25.03125 0.238281 24.65625 -0.25 Z M 20.25 -5.96875 "/></g></g></g><g fill="#d9d9d9" fill-opacity="1"><g transform="translate(60.573095, 312.516771)"><g><path d="M 13.15625 10.921875 L 19.265625 3.953125 L 16.84375 -11.046875 L 4.359375 3.203125 C 4.160156 3.429688 3.945312 3.445312 3.71875 3.25 L 2.546875 2.234375 C 2.472656 2.160156 2.425781 2.054688 2.40625 1.921875 C 2.382812 1.796875 2.414062 1.6875 2.5 1.59375 L 16.484375 -14.375 C 16.566406 -14.46875 16.675781 -14.515625 16.8125 -14.515625 C 16.957031 -14.523438 17.066406 -14.492188 17.140625 -14.421875 L 18.765625 -13 C 18.992188 -12.800781 19.128906 -12.550781 19.171875 -12.25 L 21.40625 1.515625 L 27.140625 -5.046875 C 27.347656 -5.273438 27.566406 -5.289062 27.796875 -5.09375 L 28.953125 -4.078125 C 29.179688 -3.878906 29.191406 -3.664062 28.984375 -3.4375 L 15 12.53125 C 14.800781 12.757812 14.585938 12.773438 14.359375 12.578125 L 13.203125 11.5625 C 12.972656 11.363281 12.957031 11.148438 13.15625 10.921875 Z M 13.15625 10.921875 "/></g></g></g><g fill="#d9d9d9" fill-opacity="1"><g transform="translate(86.843703, 334.030948)"><g><path d="M 8.921875 4.625 L 18.53125 -12.03125 L 12.8125 -15.328125 C 12.550781 -15.484375 12.5 -15.691406 12.65625 -15.953125 L 13.421875 -17.296875 C 13.578125 -17.554688 13.785156 -17.609375 14.046875 -17.453125 L 27.609375 -9.625 C 27.867188 -9.46875 27.921875 -9.257812 27.765625 -9 L 27 -7.65625 C 26.84375 -7.394531 26.632812 -7.34375 26.375 -7.5 L 20.65625 -10.796875 L 11.046875 5.859375 C 10.984375 5.960938 10.882812 6.03125 10.75 6.0625 C 10.625 6.09375 10.515625 6.078125 10.421875 6.015625 L 9.078125 5.25 C 8.816406 5.09375 8.765625 4.882812 8.921875 4.625 Z M 8.921875 4.625 "/></g></g></g><g fill="#d9d9d9" fill-opacity="1"><g transform="translate(116.789001, 350.036622)"><g><path d="M 3.40625 0.6875 L 10.265625 -19.421875 C 10.367188 -19.703125 10.566406 -19.789062 10.859375 -19.6875 L 25.078125 -14.84375 C 25.367188 -14.738281 25.460938 -14.546875 25.359375 -14.265625 L 24.859375 -12.796875 C 24.765625 -12.503906 24.570312 -12.410156 24.28125 -12.515625 L 11.921875 -16.734375 L 9.53125 -9.75 L 20.25 -6.078125 C 20.34375 -6.046875 20.421875 -5.96875 20.484375 -5.84375 C 20.546875 -5.71875 20.5625 -5.601562 20.53125 -5.5 L 20.03125 -4.046875 C 19.988281 -3.910156 19.90625 -3.816406 19.78125 -3.765625 C 19.65625 -3.722656 19.546875 -3.71875 19.453125 -3.75 L 8.734375 -7.421875 L 6.359375 -0.4375 L 18.71875 3.78125 C 18.84375 3.832031 18.929688 3.914062 18.984375 4.03125 C 19.035156 4.15625 19.039062 4.269531 19 4.375 L 18.5 5.84375 C 18.40625 6.125 18.210938 6.210938 17.921875 6.109375 L 3.703125 1.265625 C 3.410156 1.160156 3.3125 0.96875 3.40625 0.6875 Z M 3.40625 0.6875 "/></g></g></g><g fill="#d9d9d9" fill-opacity="1"><g transform="translate(149.238795, 359.925233)"><g><path d="M 17 1.828125 L 18.234375 -7.34375 L 7.921875 -18.5 L 5.40625 0.265625 C 5.363281 0.566406 5.191406 0.695312 4.890625 0.65625 L 3.359375 0.453125 C 3.253906 0.441406 3.15625 0.382812 3.0625 0.28125 C 2.976562 0.175781 2.945312 0.0625 2.96875 -0.0625 L 5.796875 -21.109375 C 5.804688 -21.234375 5.867188 -21.328125 5.984375 -21.390625 C 6.097656 -21.460938 6.207031 -21.492188 6.3125 -21.484375 L 8.453125 -21.203125 C 8.753906 -21.160156 9.003906 -21.03125 9.203125 -20.8125 L 18.671875 -10.578125 L 19.828125 -19.21875 C 19.867188 -19.507812 20.039062 -19.632812 20.34375 -19.59375 L 21.875 -19.390625 C 22.175781 -19.347656 22.304688 -19.179688 22.265625 -18.890625 L 19.4375 2.15625 C 19.394531 2.457031 19.222656 2.585938 18.921875 2.546875 L 17.390625 2.34375 C 17.085938 2.300781 16.957031 2.128906 17 1.828125 Z M 17 1.828125 "/></g></g></g><g fill="#d9d9d9" fill-opacity="1"><g transform="translate(183.023127, 363.33418)"><g><path d="M 2.90625 -0.640625 L 1.59375 -21.828125 C 1.59375 -21.929688 1.640625 -22.035156 1.734375 -22.140625 C 1.828125 -22.242188 1.925781 -22.296875 2.03125 -22.296875 L 13.453125 -23.015625 C 14.097656 -23.046875 14.710938 -22.953125 15.296875 -22.734375 C 15.878906 -22.523438 16.398438 -22.21875 16.859375 -21.8125 C 17.316406 -21.414062 17.679688 -20.941406 17.953125 -20.390625 C 18.234375 -19.835938 18.394531 -19.238281 18.4375 -18.59375 L 19.21875 -5.890625 C 19.257812 -5.265625 19.175781 -4.648438 18.96875 -4.046875 C 18.757812 -3.453125 18.453125 -2.929688 18.046875 -2.484375 C 17.640625 -2.035156 17.160156 -1.671875 16.609375 -1.390625 C 16.054688 -1.109375 15.457031 -0.953125 14.8125 -0.921875 L 3.390625 -0.203125 C 3.285156 -0.203125 3.179688 -0.242188 3.078125 -0.328125 C 2.972656 -0.410156 2.914062 -0.515625 2.90625 -0.640625 Z M 5.21875 -2.78125 L 14.65625 -3.375 C 15.28125 -3.40625 15.796875 -3.65625 16.203125 -4.125 C 16.617188 -4.59375 16.804688 -5.128906 16.765625 -5.734375 L 15.984375 -18.4375 C 15.953125 -19.0625 15.703125 -19.582031 15.234375 -20 C 14.765625 -20.414062 14.21875 -20.609375 13.59375 -20.578125 L 4.15625 -19.984375 Z M 5.21875 -2.78125 "/></g></g></g><g fill="#d9d9d9" fill-opacity="1"><g transform="translate(216.825676, 360.122088)"><g/></g></g><g fill="#00bf63" fill-opacity="1"><g transform="translate(249.333455, 350.426743)"><g><path d="M 2.4375 -1.6875 L -6.828125 -20.796875 C -6.878906 -20.890625 -6.878906 -21 -6.828125 -21.125 C -6.785156 -21.257812 -6.71875 -21.351562 -6.625 -21.40625 L 3.6875 -26.40625 C 4.257812 -26.6875 4.851562 -26.835938 5.46875 -26.859375 C 6.09375 -26.890625 6.691406 -26.800781 7.265625 -26.59375 C 7.847656 -26.394531 8.375 -26.09375 8.84375 -25.6875 C 9.3125 -25.28125 9.6875 -24.785156 9.96875 -24.203125 L 15.53125 -12.765625 C 15.800781 -12.191406 15.953125 -11.585938 15.984375 -10.953125 C 16.023438 -10.328125 15.941406 -9.726562 15.734375 -9.15625 C 15.523438 -8.59375 15.21875 -8.078125 14.8125 -7.609375 C 14.414062 -7.140625 13.929688 -6.765625 13.359375 -6.484375 L 3.046875 -1.484375 C 2.953125 -1.429688 2.84375 -1.421875 2.71875 -1.453125 C 2.59375 -1.492188 2.5 -1.570312 2.4375 -1.6875 Z M 3.765625 -4.5625 L 12.28125 -8.6875 C 12.84375 -8.957031 13.222656 -9.390625 13.421875 -9.984375 C 13.617188 -10.578125 13.585938 -11.148438 13.328125 -11.703125 L 7.765625 -23.140625 C 7.492188 -23.703125 7.066406 -24.082031 6.484375 -24.28125 C 5.898438 -24.488281 5.328125 -24.457031 4.765625 -24.1875 L -3.75 -20.0625 Z M 3.765625 -4.5625 "/></g></g></g><g fill="#00bf63" fill-opacity="1"><g transform="translate(279.371242, 334.594415)"><g><path d="M 2.484375 -2.4375 L -10.328125 -19.375 C -10.503906 -19.613281 -10.472656 -19.828125 -10.234375 -20.015625 L 1.765625 -29.078125 C 2.003906 -29.253906 2.210938 -29.222656 2.390625 -28.984375 L 3.328125 -27.75 C 3.503906 -27.507812 3.472656 -27.300781 3.234375 -27.125 L -7.1875 -19.25 L -2.734375 -13.359375 L 6.296875 -20.1875 C 6.378906 -20.25 6.488281 -20.269531 6.625 -20.25 C 6.769531 -20.226562 6.875 -20.175781 6.9375 -20.09375 L 7.875 -18.859375 C 7.957031 -18.742188 7.984375 -18.625 7.953125 -18.5 C 7.921875 -18.382812 7.863281 -18.296875 7.78125 -18.234375 L -1.25 -11.40625 L 3.203125 -5.5 L 13.625 -13.375 C 13.726562 -13.457031 13.84375 -13.484375 13.96875 -13.453125 C 14.101562 -13.421875 14.203125 -13.363281 14.265625 -13.28125 L 15.203125 -12.046875 C 15.378906 -11.804688 15.347656 -11.597656 15.109375 -11.421875 L 3.109375 -2.359375 C 2.867188 -2.171875 2.660156 -2.195312 2.484375 -2.4375 Z M 2.484375 -2.4375 "/></g></g></g><g fill="#00bf63" fill-opacity="1"><g transform="translate(305.743161, 313.258808)"><g><path d="M 4.75 -5.953125 L -6.578125 -10.0625 C -6.710938 -10.113281 -6.859375 -10.179688 -7.015625 -10.265625 C -7.171875 -10.347656 -7.285156 -10.425781 -7.359375 -10.5 L -14.234375 -16.625 C -14.328125 -16.707031 -14.367188 -16.8125 -14.359375 -16.9375 C -14.359375 -17.070312 -14.328125 -17.179688 -14.265625 -17.265625 L -13.234375 -18.421875 C -13.023438 -18.640625 -12.8125 -18.648438 -12.59375 -18.453125 L -6.078125 -12.65625 C -5.984375 -12.570312 -5.863281 -12.484375 -5.71875 -12.390625 C -5.570312 -12.304688 -5.445312 -12.238281 -5.34375 -12.1875 L 4.4375 -8.671875 L 6.875 -11.390625 L 2.25 -20.6875 C 2.1875 -20.800781 2.101562 -20.925781 2 -21.0625 C 1.894531 -21.195312 1.796875 -21.304688 1.703125 -21.390625 L -4.8125 -27.1875 C -5.03125 -27.382812 -5.035156 -27.597656 -4.828125 -27.828125 L -3.796875 -28.984375 C -3.597656 -29.203125 -3.390625 -29.210938 -3.171875 -29.015625 L 3.703125 -22.890625 C 3.773438 -22.816406 3.863281 -22.710938 3.96875 -22.578125 C 4.082031 -22.441406 4.175781 -22.316406 4.25 -22.203125 L 9.609375 -11.40625 C 9.648438 -11.300781 9.660156 -11.171875 9.640625 -11.015625 C 9.628906 -10.859375 9.582031 -10.734375 9.5 -10.640625 L 5.484375 -6.140625 C 5.390625 -6.046875 5.269531 -5.976562 5.125 -5.9375 C 4.976562 -5.90625 4.851562 -5.910156 4.75 -5.953125 Z M 4.75 -5.953125 "/></g></g></g><g fill="#d9d9d9" fill-opacity="1"><g transform="translate(327.479106, 287.215913)"><g><path d="M 1.359375 -3.203125 L -16.921875 -14 C -17.179688 -14.15625 -17.234375 -14.363281 -17.078125 -14.625 L -9.4375 -27.578125 C -9.28125 -27.835938 -9.070312 -27.890625 -8.8125 -27.734375 L -7.484375 -26.9375 C -7.222656 -26.789062 -7.171875 -26.585938 -7.328125 -26.328125 L -13.96875 -15.078125 L -7.609375 -11.3125 L -1.84375 -21.0625 C -1.789062 -21.15625 -1.691406 -21.21875 -1.546875 -21.25 C -1.410156 -21.289062 -1.300781 -21.28125 -1.21875 -21.21875 L 0.125 -20.4375 C 0.238281 -20.375 0.304688 -20.273438 0.328125 -20.140625 C 0.347656 -20.015625 0.332031 -19.90625 0.28125 -19.8125 L -5.484375 -10.0625 L 0.875 -6.3125 L 7.515625 -17.5625 C 7.585938 -17.675781 7.6875 -17.742188 7.8125 -17.765625 C 7.9375 -17.785156 8.046875 -17.769531 8.140625 -17.71875 L 9.46875 -16.9375 C 9.726562 -16.78125 9.78125 -16.570312 9.625 -16.3125 L 1.984375 -3.359375 C 1.828125 -3.097656 1.617188 -3.046875 1.359375 -3.203125 Z M 1.359375 -3.203125 "/></g></g></g><g fill="#d9d9d9" fill-opacity="1"><g transform="translate(343.755118, 257.452353)"><g><path d="M -19.46875 -11.375 L -18.96875 -12.828125 C -18.863281 -13.109375 -18.664062 -13.203125 -18.375 -13.109375 L -0.234375 -6.71875 L 3.953125 -18.625 C 3.992188 -18.738281 4.078125 -18.820312 4.203125 -18.875 C 4.328125 -18.925781 4.4375 -18.929688 4.53125 -18.890625 L 6 -18.390625 C 6.28125 -18.285156 6.367188 -18.09375 6.265625 -17.8125 L 1.421875 -4.03125 C 1.378906 -3.914062 1.300781 -3.828125 1.1875 -3.765625 C 1.070312 -3.710938 0.957031 -3.707031 0.84375 -3.75 L -19.1875 -10.796875 C -19.3125 -10.835938 -19.398438 -10.914062 -19.453125 -11.03125 C -19.503906 -11.144531 -19.507812 -11.257812 -19.46875 -11.375 Z M -19.46875 -11.375 "/></g></g></g><g fill="#00bf63" fill-opacity="1"><g transform="translate(353.959396, 225.065988)"><g><path d="M 1.09375 -7.5625 C 1 -6.925781 0.785156 -6.34375 0.453125 -5.8125 C 0.128906 -5.289062 -0.265625 -4.847656 -0.734375 -4.484375 C -1.210938 -4.128906 -1.757812 -3.867188 -2.375 -3.703125 C -2.988281 -3.546875 -3.609375 -3.515625 -4.234375 -3.609375 L -16.828125 -5.421875 C -17.460938 -5.515625 -18.039062 -5.722656 -18.5625 -6.046875 C -19.09375 -6.367188 -19.539062 -6.769531 -19.90625 -7.25 C -20.28125 -7.726562 -20.550781 -8.265625 -20.71875 -8.859375 C -20.882812 -9.460938 -20.921875 -10.082031 -20.828125 -10.71875 L -19.8125 -17.84375 C -19.71875 -18.488281 -19.503906 -19.070312 -19.171875 -19.59375 C -18.835938 -20.125 -18.425781 -20.570312 -17.9375 -20.9375 C -17.445312 -21.300781 -16.90625 -21.5625 -16.3125 -21.71875 C -15.71875 -21.882812 -15.101562 -21.921875 -14.46875 -21.828125 L -1.875 -20.015625 C -1.25 -19.921875 -0.660156 -19.710938 -0.109375 -19.390625 C 0.429688 -19.066406 0.878906 -18.660156 1.234375 -18.171875 C 1.585938 -17.691406 1.84375 -17.148438 2 -16.546875 C 2.164062 -15.953125 2.203125 -15.332031 2.109375 -14.6875 Z M -18.390625 -10.375 C -18.484375 -9.769531 -18.34375 -9.210938 -17.96875 -8.703125 C -17.59375 -8.191406 -17.097656 -7.894531 -16.484375 -7.8125 L -3.890625 -6 C -3.285156 -5.90625 -2.726562 -6.046875 -2.21875 -6.421875 C -1.71875 -6.804688 -1.421875 -7.300781 -1.328125 -7.90625 L -0.3125 -15.03125 C -0.21875 -15.65625 -0.359375 -16.210938 -0.734375 -16.703125 C -1.117188 -17.203125 -1.613281 -17.5 -2.21875 -17.59375 L -14.8125 -19.40625 C -15.425781 -19.488281 -15.984375 -19.347656 -16.484375 -18.984375 C -16.984375 -18.617188 -17.28125 -18.125 -17.375 -17.5 Z M -18.390625 -10.375 "/></g></g></g><g fill="#00bf63" fill-opacity="1"><g transform="translate(357.685686, 191.315184)"><g><path d="M -0.609375 -2.90625 L -21.8125 -1.8125 C -21.9375 -1.800781 -22.046875 -1.84375 -22.140625 -1.9375 C -22.234375 -2.03125 -22.28125 -2.128906 -22.28125 -2.234375 L -22.890625 -13.671875 C -22.921875 -14.316406 -22.828125 -14.925781 -22.609375 -15.5 C -22.390625 -16.070312 -22.070312 -16.585938 -21.65625 -17.046875 C -21.25 -17.503906 -20.765625 -17.867188 -20.203125 -18.140625 C -19.648438 -18.421875 -19.050781 -18.578125 -18.40625 -18.609375 L -15.546875 -18.75 C -14.898438 -18.789062 -14.28125 -18.703125 -13.6875 -18.484375 C -13.101562 -18.265625 -12.585938 -17.953125 -12.140625 -17.546875 C -11.703125 -17.140625 -11.34375 -16.660156 -11.0625 -16.109375 C -10.789062 -15.554688 -10.640625 -14.957031 -10.609375 -14.3125 L -10.109375 -4.875 L -0.734375 -5.359375 C -0.429688 -5.378906 -0.273438 -5.238281 -0.265625 -4.9375 L -0.171875 -3.390625 C -0.171875 -3.285156 -0.210938 -3.179688 -0.296875 -3.078125 C -0.378906 -2.972656 -0.484375 -2.914062 -0.609375 -2.90625 Z M -12.5625 -4.75 L -13.0625 -14.1875 C -13.09375 -14.8125 -13.335938 -15.328125 -13.796875 -15.734375 C -14.253906 -16.148438 -14.796875 -16.335938 -15.421875 -16.296875 L -18.28125 -16.15625 C -18.90625 -16.125 -19.425781 -15.878906 -19.84375 -15.421875 C -20.269531 -14.960938 -20.46875 -14.421875 -20.4375 -13.796875 L -19.9375 -4.359375 Z M -12.5625 -4.75 "/></g></g></g><g fill="#d9d9d9" fill-opacity="1"><g transform="translate(354.792998, 157.484719)"><g><path d="M -1.28125 -3.234375 L -21.875 1.96875 C -22.164062 2.039062 -22.347656 1.929688 -22.421875 1.640625 L -26.109375 -12.9375 C -26.179688 -13.226562 -26.070312 -13.410156 -25.78125 -13.484375 L -24.28125 -13.859375 C -23.988281 -13.929688 -23.804688 -13.820312 -23.734375 -13.53125 L -20.53125 -0.875 L -13.359375 -2.6875 L -16.140625 -13.65625 C -16.160156 -13.757812 -16.132812 -13.875 -16.0625 -14 C -16 -14.125 -15.914062 -14.195312 -15.8125 -14.21875 L -14.3125 -14.609375 C -14.175781 -14.640625 -14.054688 -14.613281 -13.953125 -14.53125 C -13.847656 -14.457031 -13.785156 -14.367188 -13.765625 -14.265625 L -10.984375 -3.296875 L -3.8125 -5.109375 L -7.015625 -17.765625 C -7.046875 -17.898438 -7.023438 -18.015625 -6.953125 -18.109375 C -6.878906 -18.210938 -6.789062 -18.28125 -6.6875 -18.3125 L -5.1875 -18.6875 C -4.894531 -18.757812 -4.710938 -18.648438 -4.640625 -18.359375 L -0.953125 -3.78125 C -0.878906 -3.488281 -0.988281 -3.304688 -1.28125 -3.234375 Z M -1.28125 -3.234375 "/></g></g></g><g fill="#d9d9d9" fill-opacity="1"><g transform="translate(345.401861, 124.886495)"><g><path d="M -7.4375 -14.703125 L -14.15625 -6.890625 L -11.203125 -0.65625 L -2.71875 -4.6875 C -2.445312 -4.8125 -2.242188 -4.738281 -2.109375 -4.46875 L -1.46875 -3.09375 C -1.332031 -2.820312 -1.398438 -2.625 -1.671875 -2.5 L -20.859375 6.59375 C -21.128906 6.726562 -21.332031 6.660156 -21.46875 6.390625 L -26.359375 -3.921875 C -26.628906 -4.503906 -26.773438 -5.109375 -26.796875 -5.734375 C -26.816406 -6.359375 -26.722656 -6.957031 -26.515625 -7.53125 C -26.316406 -8.101562 -26.015625 -8.617188 -25.609375 -9.078125 C -25.203125 -9.546875 -24.707031 -9.914062 -24.125 -10.1875 L -21.515625 -11.421875 C -20.566406 -11.878906 -19.582031 -12 -18.5625 -11.78125 C -17.539062 -11.570312 -16.675781 -11.070312 -15.96875 -10.28125 L -15.21875 -9.421875 L -8.59375 -17.140625 C -8.519531 -17.242188 -8.429688 -17.285156 -8.328125 -17.265625 C -8.222656 -17.253906 -8.144531 -17.191406 -8.09375 -17.078125 L -7.34375 -15.484375 C -7.28125 -15.367188 -7.257812 -15.234375 -7.28125 -15.078125 C -7.3125 -14.921875 -7.363281 -14.796875 -7.4375 -14.703125 Z M -13.421875 0.390625 L -17.46875 -8.140625 C -17.738281 -8.710938 -18.164062 -9.101562 -18.75 -9.3125 C -19.332031 -9.519531 -19.90625 -9.488281 -20.46875 -9.21875 L -23.078125 -7.984375 C -23.640625 -7.722656 -24.023438 -7.296875 -24.234375 -6.703125 C -24.453125 -6.117188 -24.425781 -5.539062 -24.15625 -4.96875 L -20.109375 3.5625 Z M -13.421875 0.390625 "/></g></g></g><g fill="#ffffff" fill-opacity="1"><g transform="translate(106.409219, 242.755509)"><g><path d="M 35.253906 -42.214844 C 34.132812 -43.339844 32.785156 -44.460938 30.988281 -45.585938 C 29.191406 -46.707031 27.621094 -47.828125 25.824219 -49.175781 C 24.027344 -50.300781 22.457031 -51.421875 21.109375 -52.769531 C 19.761719 -54.117188 18.863281 -55.464844 18.414062 -57.261719 C 17.964844 -58.382812 17.964844 -59.507812 18.636719 -60.855469 C 19.3125 -61.976562 20.210938 -63.097656 21.332031 -64.222656 C 22.457031 -65.121094 23.578125 -66.242188 24.925781 -67.140625 C 26.273438 -68.039062 27.171875 -68.9375 28.070312 -69.609375 C 29.867188 -71.40625 31.4375 -73.429688 32.558594 -75.898438 C 33.683594 -78.367188 35.03125 -80.613281 36.828125 -82.859375 C 39.746094 -86.453125 41.09375 -89.597656 40.867188 -92.515625 C 40.417969 -95.433594 37.949219 -97.679688 33.007812 -99.476562 C 32.558594 -99.476562 31.660156 -99.703125 30.761719 -99.703125 C 29.867188 -99.703125 29.417969 -99.476562 29.191406 -99.476562 C 27.171875 -98.128906 25.148438 -97.230469 23.128906 -96.332031 C 20.882812 -95.433594 19.085938 -94.3125 17.515625 -92.515625 C 16.167969 -91.167969 15.046875 -89.820312 13.921875 -88.699219 C 12.574219 -87.574219 11.453125 -86.453125 10.328125 -85.328125 C 8.53125 -83.535156 6.738281 -81.511719 5.164062 -79.265625 C 3.367188 -77.019531 2.246094 -74.550781 1.347656 -72.082031 C 0.449219 -69.386719 0 -66.917969 0 -64.445312 C 0 -61.75 0.898438 -59.507812 2.46875 -57.261719 C 5.164062 -53.21875 8.53125 -49.851562 12.800781 -47.15625 C 17.066406 -44.460938 21.332031 -41.992188 25.375 -39.96875 C 26.273438 -39.519531 27.171875 -39.296875 28.519531 -39.296875 C 31.210938 -39.296875 33.457031 -40.195312 35.253906 -42.214844 Z M 35.253906 -42.214844 "/></g></g></g><g fill="#00bf63" fill-opacity="1"><g transform="translate(152.239643, 242.755509)"><g><path d="M 11.453125 -8.082031 C 12.574219 -9.878906 13.472656 -11.902344 13.921875 -14.148438 C 14.371094 -16.390625 15.046875 -18.636719 15.941406 -20.882812 C 17.066406 -24.027344 18.414062 -26.945312 20.210938 -29.867188 C 22.007812 -32.785156 23.351562 -35.929688 24.699219 -39.070312 C 27.171875 -44.910156 30.089844 -50.75 33.234375 -56.363281 C 36.378906 -61.75 39.746094 -67.367188 43.113281 -73.203125 C 44.460938 -75.898438 46.257812 -78.59375 48.054688 -81.289062 C 49.851562 -83.984375 51.871094 -86.902344 53.667969 -89.820312 C 55.464844 -92.515625 57.035156 -95.433594 58.609375 -98.355469 C 59.957031 -101.273438 61.304688 -104.191406 62.199219 -107.335938 C 62.648438 -108.90625 62.875 -111.152344 63.324219 -114.074219 C 63.773438 -116.992188 63.324219 -119.238281 62.425781 -120.808594 C 61.75 -121.484375 60.628906 -122.382812 59.28125 -123.726562 C 57.933594 -124.851562 56.363281 -125.972656 54.566406 -127.097656 C 52.769531 -127.996094 50.972656 -128.894531 49.175781 -129.792969 C 47.378906 -130.464844 45.808594 -130.914062 44.6875 -130.914062 C 41.992188 -130.914062 39.296875 -130.015625 37.050781 -128.21875 C 34.582031 -126.421875 32.785156 -124.402344 31.660156 -121.707031 C 29.867188 -117.441406 28.519531 -112.949219 27.84375 -108.457031 C 27.171875 -103.742188 26.046875 -99.253906 24.699219 -94.984375 C 22.90625 -90.496094 21.558594 -85.777344 20.210938 -81.289062 C 18.863281 -76.574219 17.515625 -71.855469 15.71875 -67.367188 C 13.921875 -63.324219 12.351562 -59.507812 10.554688 -55.6875 C 8.757812 -51.648438 7.636719 -47.605469 7.1875 -43.339844 C 6.960938 -42.890625 6.960938 -42.664062 6.960938 -42.664062 C 6.960938 -42.441406 6.738281 -42.214844 6.738281 -42.214844 C 6.0625 -41.316406 5.390625 -39.519531 4.714844 -37.277344 C 3.816406 -35.03125 3.144531 -32.558594 2.46875 -29.867188 C 1.796875 -27.171875 1.121094 -24.476562 0.671875 -22.230469 C 0.222656 -19.761719 0 -17.964844 0 -17.066406 C 0 -15.71875 0 -14.148438 0.449219 -12.574219 C 0.671875 -11.003906 1.121094 -9.65625 1.570312 -8.308594 C 2.019531 -6.960938 2.695312 -5.839844 3.59375 -4.941406 C 4.265625 -4.042969 5.164062 -3.59375 6.0625 -3.59375 C 7.1875 -3.59375 8.308594 -4.042969 9.207031 -5.164062 C 10.105469 -6.0625 10.777344 -7.1875 11.453125 -8.082031 Z M 25.597656 -53.445312 C 25.597656 -53.890625 25.597656 -54.566406 26.046875 -55.464844 L 26.496094 -55.464844 C 26.046875 -54.566406 26.046875 -53.667969 26.046875 -53.21875 C 25.824219 -53.21875 25.597656 -53.21875 25.597656 -53.445312 Z M 34.582031 -74.328125 C 34.582031 -74.101562 34.582031 -73.878906 34.582031 -73.878906 C 34.582031 -73.878906 34.804688 -73.652344 34.804688 -73.652344 C 34.355469 -73.652344 34.132812 -73.652344 34.132812 -73.878906 Z M 34.582031 -74.328125 "/></g></g></g><g fill="#ffffff" fill-opacity="1"><g transform="translate(219.60629, 242.755509)"><g><path d="M 5.613281 -42.214844 C 7.410156 -40.195312 9.65625 -39.296875 12.351562 -39.296875 C 13.472656 -39.296875 14.597656 -39.519531 15.492188 -39.96875 C 19.535156 -41.992188 23.578125 -44.460938 27.84375 -47.15625 C 32.109375 -49.851562 35.703125 -53.21875 38.398438 -57.261719 C 39.96875 -59.507812 40.867188 -61.75 40.867188 -64.445312 C 40.867188 -66.917969 40.417969 -69.386719 39.519531 -72.082031 C 38.621094 -74.550781 37.277344 -77.019531 35.703125 -79.265625 C 33.90625 -81.511719 32.335938 -83.535156 30.539062 -85.328125 C 29.191406 -86.453125 28.070312 -87.574219 26.945312 -88.699219 C 25.597656 -89.820312 24.476562 -91.167969 23.351562 -92.515625 C 21.558594 -94.3125 19.761719 -95.433594 17.738281 -96.332031 C 15.492188 -97.230469 13.472656 -98.128906 11.675781 -99.476562 C 11.226562 -99.476562 10.777344 -99.703125 10.105469 -99.703125 C 8.980469 -99.703125 8.308594 -99.476562 7.859375 -99.476562 C 2.917969 -97.679688 0.222656 -95.433594 0 -92.515625 C -0.449219 -89.597656 0.898438 -86.453125 4.042969 -82.859375 C 5.613281 -80.613281 6.960938 -78.367188 8.082031 -75.898438 C 9.207031 -73.429688 10.777344 -71.40625 12.800781 -69.609375 C 13.472656 -68.9375 14.371094 -68.039062 15.71875 -67.140625 C 17.066406 -66.242188 18.1875 -65.121094 19.3125 -64.222656 C 20.210938 -63.097656 21.109375 -61.976562 21.78125 -60.855469 C 22.457031 -59.507812 22.679688 -58.382812 22.457031 -57.261719 C 22.007812 -55.464844 20.882812 -54.117188 19.535156 -52.769531 C 18.1875 -51.421875 16.617188 -50.300781 14.820312 -49.175781 C 13.023438 -47.828125 11.453125 -46.707031 9.878906 -45.585938 C 8.082031 -44.460938 6.738281 -43.339844 5.613281 -42.214844 Z M 5.613281 -42.214844 "/></g></g></g></svg>